<mxfile host="app.diagrams.net" modified="2024-05-03T08:04:18.213Z" agent="Mozilla/5.0 (Windows NT 10.0; Win64; x64) AppleWebKit/537.36 (KHTML, like Gecko) Chrome/124.0.0.0 Safari/537.36" etag="eqr8CnBUHabf4G7LWA0g" version="24.3.1" type="google">
  <diagram name="Page-1" id="f2uGGuHAIsjDgALUWx8e">
    <mxGraphModel grid="1" page="1" gridSize="10" guides="1" tooltips="1" connect="1" arrows="1" fold="1" pageScale="1" pageWidth="827" pageHeight="1169" math="0" shadow="0">
      <root>
        <mxCell id="0" />
        <mxCell id="1" parent="0" />
        <mxCell id="AlXA9y1BA_itxyLEwqiM-9" value="" style="shape=internalStorage;whiteSpace=wrap;html=1;backgroundOutline=1;" vertex="1" parent="1">
          <mxGeometry x="120" y="80" width="120" height="80" as="geometry" />
        </mxCell>
        <mxCell id="AlXA9y1BA_itxyLEwqiM-12" value="musteriId" style="text;html=1;align=center;verticalAlign=middle;whiteSpace=wrap;rounded=0;" vertex="1" parent="1">
          <mxGeometry x="150" y="80" width="60" height="20" as="geometry" />
        </mxCell>
        <mxCell id="AlXA9y1BA_itxyLEwqiM-15" value="" style="rounded=0;whiteSpace=wrap;html=1;" vertex="1" parent="1">
          <mxGeometry x="120" y="60" width="120" height="20" as="geometry" />
        </mxCell>
        <mxCell id="AlXA9y1BA_itxyLEwqiM-16" value="Müşteri" style="text;html=1;align=center;verticalAlign=middle;whiteSpace=wrap;rounded=0;" vertex="1" parent="1">
          <mxGeometry x="120" y="55" width="120" height="30" as="geometry" />
        </mxCell>
        <mxCell id="AlXA9y1BA_itxyLEwqiM-18" value="PK" style="text;html=1;align=center;verticalAlign=middle;whiteSpace=wrap;rounded=0;" vertex="1" parent="1">
          <mxGeometry x="120" y="80" width="20" height="20" as="geometry" />
        </mxCell>
        <mxCell id="AlXA9y1BA_itxyLEwqiM-19" value="" style="shape=internalStorage;whiteSpace=wrap;html=1;backgroundOutline=1;dx=20;dy=40;" vertex="1" parent="1">
          <mxGeometry x="440" y="80" width="120" height="120" as="geometry" />
        </mxCell>
        <mxCell id="AlXA9y1BA_itxyLEwqiM-20" value="" style="rounded=0;whiteSpace=wrap;html=1;" vertex="1" parent="1">
          <mxGeometry x="440" y="60" width="120" height="20" as="geometry" />
        </mxCell>
        <mxCell id="AlXA9y1BA_itxyLEwqiM-21" value="Teslimat Bilgileri" style="text;html=1;align=center;verticalAlign=middle;whiteSpace=wrap;rounded=0;" vertex="1" parent="1">
          <mxGeometry x="440" y="55" width="120" height="30" as="geometry" />
        </mxCell>
        <mxCell id="AlXA9y1BA_itxyLEwqiM-22" value="PK" style="text;html=1;align=center;verticalAlign=middle;whiteSpace=wrap;rounded=0;" vertex="1" parent="1">
          <mxGeometry x="440" y="80" width="20" height="20" as="geometry" />
        </mxCell>
        <mxCell id="AlXA9y1BA_itxyLEwqiM-23" value="" style="shape=internalStorage;whiteSpace=wrap;html=1;backgroundOutline=1;dx=20;dy=60;" vertex="1" parent="1">
          <mxGeometry x="440" y="280" width="120" height="140" as="geometry" />
        </mxCell>
        <mxCell id="AlXA9y1BA_itxyLEwqiM-24" value="" style="rounded=0;whiteSpace=wrap;html=1;" vertex="1" parent="1">
          <mxGeometry x="440" y="260" width="120" height="20" as="geometry" />
        </mxCell>
        <mxCell id="AlXA9y1BA_itxyLEwqiM-25" value="Teslimat Bilgileri Kalemi" style="text;html=1;align=center;verticalAlign=middle;whiteSpace=wrap;rounded=0;fontSize=11;" vertex="1" parent="1">
          <mxGeometry x="440" y="260" width="120" height="20" as="geometry" />
        </mxCell>
        <mxCell id="AlXA9y1BA_itxyLEwqiM-26" value="PK" style="text;html=1;align=center;verticalAlign=middle;whiteSpace=wrap;rounded=0;" vertex="1" parent="1">
          <mxGeometry x="440" y="280" width="20" height="20" as="geometry" />
        </mxCell>
        <mxCell id="AlXA9y1BA_itxyLEwqiM-27" value="" style="shape=internalStorage;whiteSpace=wrap;html=1;backgroundOutline=1;dx=20;dy=40;" vertex="1" parent="1">
          <mxGeometry x="120" y="280" width="120" height="80" as="geometry" />
        </mxCell>
        <mxCell id="AlXA9y1BA_itxyLEwqiM-28" value="" style="rounded=0;whiteSpace=wrap;html=1;" vertex="1" parent="1">
          <mxGeometry x="120" y="260" width="120" height="20" as="geometry" />
        </mxCell>
        <mxCell id="AlXA9y1BA_itxyLEwqiM-29" value="Nakliye" style="text;html=1;align=center;verticalAlign=middle;whiteSpace=wrap;rounded=0;" vertex="1" parent="1">
          <mxGeometry x="120" y="260" width="120" height="20" as="geometry" />
        </mxCell>
        <mxCell id="AlXA9y1BA_itxyLEwqiM-30" value="PK" style="text;html=1;align=center;verticalAlign=middle;whiteSpace=wrap;rounded=0;" vertex="1" parent="1">
          <mxGeometry x="120" y="280" width="20" height="20" as="geometry" />
        </mxCell>
        <mxCell id="AlXA9y1BA_itxyLEwqiM-31" value="" style="shape=internalStorage;whiteSpace=wrap;html=1;backgroundOutline=1;dx=20;dy=40;" vertex="1" parent="1">
          <mxGeometry x="320" y="500" width="120" height="100" as="geometry" />
        </mxCell>
        <mxCell id="AlXA9y1BA_itxyLEwqiM-32" value="" style="rounded=0;whiteSpace=wrap;html=1;" vertex="1" parent="1">
          <mxGeometry x="320" y="480" width="120" height="20" as="geometry" />
        </mxCell>
        <mxCell id="AlXA9y1BA_itxyLEwqiM-33" value="Paket" style="text;html=1;align=center;verticalAlign=middle;whiteSpace=wrap;rounded=0;" vertex="1" parent="1">
          <mxGeometry x="320" y="480" width="120" height="20" as="geometry" />
        </mxCell>
        <mxCell id="AlXA9y1BA_itxyLEwqiM-34" value="PK" style="text;html=1;align=center;verticalAlign=middle;whiteSpace=wrap;rounded=0;" vertex="1" parent="1">
          <mxGeometry x="320" y="500" width="20" height="20" as="geometry" />
        </mxCell>
        <mxCell id="AlXA9y1BA_itxyLEwqiM-35" value="musteriAdi" style="text;html=1;align=center;verticalAlign=middle;whiteSpace=wrap;rounded=0;" vertex="1" parent="1">
          <mxGeometry x="140" y="100" width="90" height="30" as="geometry" />
        </mxCell>
        <mxCell id="AlXA9y1BA_itxyLEwqiM-36" value="musteriSehir" style="text;html=1;align=center;verticalAlign=middle;whiteSpace=wrap;rounded=0;fontSize=11;" vertex="1" parent="1">
          <mxGeometry x="140" y="120" width="90" height="30" as="geometry" />
        </mxCell>
        <mxCell id="AlXA9y1BA_itxyLEwqiM-44" value="tesId" style="text;html=1;align=center;verticalAlign=middle;whiteSpace=wrap;rounded=0;" vertex="1" parent="1">
          <mxGeometry x="460" y="80" width="100" height="20" as="geometry" />
        </mxCell>
        <mxCell id="AlXA9y1BA_itxyLEwqiM-45" value="nakId" style="text;html=1;align=center;verticalAlign=middle;whiteSpace=wrap;rounded=0;" vertex="1" parent="1">
          <mxGeometry x="140" y="280" width="100" height="20" as="geometry" />
        </mxCell>
        <mxCell id="AlXA9y1BA_itxyLEwqiM-46" value="tesBilId" style="text;html=1;align=center;verticalAlign=middle;whiteSpace=wrap;rounded=0;" vertex="1" parent="1">
          <mxGeometry x="460" y="280" width="100" height="20" as="geometry" />
        </mxCell>
        <mxCell id="AlXA9y1BA_itxyLEwqiM-47" value="paketId" style="text;html=1;align=center;verticalAlign=middle;whiteSpace=wrap;rounded=0;" vertex="1" parent="1">
          <mxGeometry x="340" y="500" width="100" height="20" as="geometry" />
        </mxCell>
        <mxCell id="AlXA9y1BA_itxyLEwqiM-48" value="tesSevkiyatNoktası" style="text;html=1;align=center;verticalAlign=middle;whiteSpace=wrap;rounded=0;fontSize=11;" vertex="1" parent="1">
          <mxGeometry x="460" y="120" width="100" height="30" as="geometry" />
        </mxCell>
        <mxCell id="AlXA9y1BA_itxyLEwqiM-49" value="tesTeslimatTürü" style="text;html=1;align=center;verticalAlign=middle;whiteSpace=wrap;rounded=0;" vertex="1" parent="1">
          <mxGeometry x="460" y="140" width="100" height="20" as="geometry" />
        </mxCell>
        <mxCell id="AlXA9y1BA_itxyLEwqiM-50" value="tesPlanlananTarih" style="text;html=1;align=center;verticalAlign=middle;whiteSpace=wrap;rounded=0;fontSize=11;" vertex="1" parent="1">
          <mxGeometry x="480" y="150" width="60" height="30" as="geometry" />
        </mxCell>
        <mxCell id="AlXA9y1BA_itxyLEwqiM-51" value="tesTeslimatTermini" style="text;html=1;align=center;verticalAlign=middle;whiteSpace=wrap;rounded=0;fontSize=11;" vertex="1" parent="1">
          <mxGeometry x="460" y="170" width="100" height="20" as="geometry" />
        </mxCell>
        <mxCell id="AlXA9y1BA_itxyLEwqiM-52" value="musteriId" style="text;html=1;align=center;verticalAlign=middle;whiteSpace=wrap;rounded=0;" vertex="1" parent="1">
          <mxGeometry x="460" y="95" width="100" height="30" as="geometry" />
        </mxCell>
        <mxCell id="AlXA9y1BA_itxyLEwqiM-53" value="" style="endArrow=none;html=1;rounded=0;entryX=1;entryY=0;entryDx=0;entryDy=0;exitX=-0.007;exitY=0.34;exitDx=0;exitDy=0;exitPerimeter=0;" edge="1" parent="1" source="AlXA9y1BA_itxyLEwqiM-19" target="AlXA9y1BA_itxyLEwqiM-48">
          <mxGeometry width="50" height="50" relative="1" as="geometry">
            <mxPoint x="380" y="160" as="sourcePoint" />
            <mxPoint x="430" y="110" as="targetPoint" />
          </mxGeometry>
        </mxCell>
        <mxCell id="AlXA9y1BA_itxyLEwqiM-54" value="FK" style="text;html=1;align=center;verticalAlign=middle;whiteSpace=wrap;rounded=0;" vertex="1" parent="1">
          <mxGeometry x="440" y="100" width="20" height="20" as="geometry" />
        </mxCell>
        <mxCell id="AlXA9y1BA_itxyLEwqiM-55" value="tesbilId" style="text;html=1;align=center;verticalAlign=middle;whiteSpace=wrap;rounded=0;" vertex="1" parent="1">
          <mxGeometry x="140" y="300" width="100" height="20" as="geometry" />
        </mxCell>
        <mxCell id="AlXA9y1BA_itxyLEwqiM-56" value="nakYükSaatiBaşlangıcı" style="text;html=1;align=center;verticalAlign=middle;whiteSpace=wrap;rounded=0;fontSize=9;" vertex="1" parent="1">
          <mxGeometry x="140" y="320" width="100" height="20" as="geometry" />
        </mxCell>
        <mxCell id="AlXA9y1BA_itxyLEwqiM-57" value="FK" style="text;html=1;align=center;verticalAlign=middle;whiteSpace=wrap;rounded=0;" vertex="1" parent="1">
          <mxGeometry x="440" y="300" width="20" height="20" as="geometry" />
        </mxCell>
        <mxCell id="AlXA9y1BA_itxyLEwqiM-58" value="nakYükSaatiBitişi" style="text;html=1;align=center;verticalAlign=middle;whiteSpace=wrap;rounded=0;fontSize=11;" vertex="1" parent="1">
          <mxGeometry x="140" y="340" width="100" height="20" as="geometry" />
        </mxCell>
        <mxCell id="AlXA9y1BA_itxyLEwqiM-59" value="FK" style="text;html=1;align=center;verticalAlign=middle;whiteSpace=wrap;rounded=0;" vertex="1" parent="1">
          <mxGeometry x="120" y="300" width="20" height="20" as="geometry" />
        </mxCell>
        <mxCell id="AlXA9y1BA_itxyLEwqiM-61" value="tesId" style="text;html=1;align=center;verticalAlign=middle;whiteSpace=wrap;rounded=0;" vertex="1" parent="1">
          <mxGeometry x="460" y="300" width="100" height="20" as="geometry" />
        </mxCell>
        <mxCell id="AlXA9y1BA_itxyLEwqiM-62" value="malzemeId" style="text;html=1;align=center;verticalAlign=middle;whiteSpace=wrap;rounded=0;" vertex="1" parent="1">
          <mxGeometry x="460" y="310" width="100" height="30" as="geometry" />
        </mxCell>
        <mxCell id="AlXA9y1BA_itxyLEwqiM-63" value="malzemeAdı" style="text;html=1;align=center;verticalAlign=middle;whiteSpace=wrap;rounded=0;" vertex="1" parent="1">
          <mxGeometry x="460" y="340" width="100" height="20" as="geometry" />
        </mxCell>
        <mxCell id="AlXA9y1BA_itxyLEwqiM-64" value="tesBilÜretimYeri" style="text;html=1;align=center;verticalAlign=middle;whiteSpace=wrap;rounded=0;" vertex="1" parent="1">
          <mxGeometry x="460" y="400" width="100" height="20" as="geometry" />
        </mxCell>
        <mxCell id="AlXA9y1BA_itxyLEwqiM-65" value="tesBilDepoYeri" style="text;html=1;align=center;verticalAlign=middle;whiteSpace=wrap;rounded=0;" vertex="1" parent="1">
          <mxGeometry x="460" y="380" width="100" height="20" as="geometry" />
        </mxCell>
        <mxCell id="AlXA9y1BA_itxyLEwqiM-66" value="malzemeGrubu" style="text;html=1;align=center;verticalAlign=middle;whiteSpace=wrap;rounded=0;" vertex="1" parent="1">
          <mxGeometry x="460" y="360" width="100" height="20" as="geometry" />
        </mxCell>
        <mxCell id="AlXA9y1BA_itxyLEwqiM-68" value="paketBirimAdet" style="text;html=1;align=center;verticalAlign=middle;whiteSpace=wrap;rounded=0;" vertex="1" parent="1">
          <mxGeometry x="340" y="560" width="100" height="20" as="geometry" />
        </mxCell>
        <mxCell id="AlXA9y1BA_itxyLEwqiM-69" value="ürünTipi" style="text;html=1;align=center;verticalAlign=middle;whiteSpace=wrap;rounded=0;" vertex="1" parent="1">
          <mxGeometry x="340" y="540" width="100" height="20" as="geometry" />
        </mxCell>
        <mxCell id="AlXA9y1BA_itxyLEwqiM-73" value="paketTaşınanAraç" style="text;html=1;align=center;verticalAlign=middle;whiteSpace=wrap;rounded=0;" vertex="1" parent="1">
          <mxGeometry x="340" y="580" width="100" height="20" as="geometry" />
        </mxCell>
        <mxCell id="yU4dRJvC-YZ2i7uGB-qC-16" value="" style="edgeStyle=entityRelationEdgeStyle;fontSize=12;html=1;endArrow=ERoneToMany;startArrow=ERmandOne;rounded=0;exitX=1.01;exitY=0.175;exitDx=0;exitDy=0;exitPerimeter=0;entryX=0;entryY=0.75;entryDx=0;entryDy=0;" edge="1" parent="1" source="AlXA9y1BA_itxyLEwqiM-9" target="AlXA9y1BA_itxyLEwqiM-54">
          <mxGeometry width="100" height="100" relative="1" as="geometry">
            <mxPoint x="370" y="320" as="sourcePoint" />
            <mxPoint x="470" y="220" as="targetPoint" />
          </mxGeometry>
        </mxCell>
        <mxCell id="yU4dRJvC-YZ2i7uGB-qC-18" value="(1,1)" style="text;html=1;align=center;verticalAlign=middle;whiteSpace=wrap;rounded=0;" vertex="1" parent="1">
          <mxGeometry x="240" y="65" width="60" height="30" as="geometry" />
        </mxCell>
        <mxCell id="yU4dRJvC-YZ2i7uGB-qC-19" value="(1,N)" style="text;html=1;align=center;verticalAlign=middle;whiteSpace=wrap;rounded=0;" vertex="1" parent="1">
          <mxGeometry x="360" y="105" width="60" height="30" as="geometry" />
        </mxCell>
        <mxCell id="yU4dRJvC-YZ2i7uGB-qC-20" value="(1,N)" style="text;html=1;align=center;verticalAlign=middle;whiteSpace=wrap;rounded=0;" vertex="1" parent="1">
          <mxGeometry x="560" y="55" width="60" height="30" as="geometry" />
        </mxCell>
        <mxCell id="yU4dRJvC-YZ2i7uGB-qC-21" value="(1,N)" style="text;html=1;align=center;verticalAlign=middle;whiteSpace=wrap;rounded=0;" vertex="1" parent="1">
          <mxGeometry x="260" y="535" width="60" height="30" as="geometry" />
        </mxCell>
        <mxCell id="yU4dRJvC-YZ2i7uGB-qC-22" value="(0,N)" style="text;html=1;align=center;verticalAlign=middle;whiteSpace=wrap;rounded=0;" vertex="1" parent="1">
          <mxGeometry x="560" y="310" width="60" height="30" as="geometry" />
        </mxCell>
        <mxCell id="yU4dRJvC-YZ2i7uGB-qC-23" value="(1,1)" style="text;html=1;align=center;verticalAlign=middle;whiteSpace=wrap;rounded=0;" vertex="1" parent="1">
          <mxGeometry x="220" y="310" width="60" height="30" as="geometry" />
        </mxCell>
        <mxCell id="yU4dRJvC-YZ2i7uGB-qC-24" value="(1,N)" style="text;html=1;align=center;verticalAlign=middle;whiteSpace=wrap;rounded=0;" vertex="1" parent="1">
          <mxGeometry x="380" y="260" width="60" height="30" as="geometry" />
        </mxCell>
        <mxCell id="yU4dRJvC-YZ2i7uGB-qC-26" value="" style="edgeStyle=entityRelationEdgeStyle;fontSize=12;html=1;endArrow=ERoneToMany;startArrow=ERzeroToMany;rounded=0;entryX=1;entryY=0.25;entryDx=0;entryDy=0;exitX=1;exitY=0;exitDx=0;exitDy=0;" edge="1" parent="1" source="AlXA9y1BA_itxyLEwqiM-62" target="AlXA9y1BA_itxyLEwqiM-44">
          <mxGeometry width="100" height="100" relative="1" as="geometry">
            <mxPoint x="370" y="320" as="sourcePoint" />
            <mxPoint x="470" y="220" as="targetPoint" />
          </mxGeometry>
        </mxCell>
        <mxCell id="yU4dRJvC-YZ2i7uGB-qC-27" value="" style="edgeStyle=entityRelationEdgeStyle;fontSize=12;html=1;endArrow=ERoneToMany;startArrow=ERmandOne;rounded=0;exitX=1;exitY=0.5;exitDx=0;exitDy=0;entryX=0;entryY=0.5;entryDx=0;entryDy=0;" edge="1" parent="1" source="AlXA9y1BA_itxyLEwqiM-55" target="AlXA9y1BA_itxyLEwqiM-26">
          <mxGeometry width="100" height="100" relative="1" as="geometry">
            <mxPoint x="370" y="320" as="sourcePoint" />
            <mxPoint x="380" y="350" as="targetPoint" />
          </mxGeometry>
        </mxCell>
        <mxCell id="yU4dRJvC-YZ2i7uGB-qC-30" value="FK" style="text;html=1;align=center;verticalAlign=middle;whiteSpace=wrap;rounded=0;" vertex="1" parent="1">
          <mxGeometry x="320" y="520" width="20" height="20" as="geometry" />
        </mxCell>
        <mxCell id="yU4dRJvC-YZ2i7uGB-qC-31" value="nakId" style="text;html=1;align=center;verticalAlign=middle;whiteSpace=wrap;rounded=0;" vertex="1" parent="1">
          <mxGeometry x="340" y="510" width="100" height="30" as="geometry" />
        </mxCell>
        <mxCell id="yU4dRJvC-YZ2i7uGB-qC-32" value="" style="edgeStyle=entityRelationEdgeStyle;fontSize=12;html=1;endArrow=ERoneToMany;startArrow=ERmandOne;rounded=0;entryX=0;entryY=0.5;entryDx=0;entryDy=0;exitX=0;exitY=0.5;exitDx=0;exitDy=0;" edge="1" parent="1" target="yU4dRJvC-YZ2i7uGB-qC-30">
          <mxGeometry width="100" height="100" relative="1" as="geometry">
            <mxPoint x="240" y="290" as="sourcePoint" />
            <mxPoint x="310" y="570" as="targetPoint" />
            <Array as="points">
              <mxPoint x="280" y="521.25" />
              <mxPoint x="250" y="511.25" />
              <mxPoint x="240" y="585" />
              <mxPoint x="230" y="555" />
              <mxPoint x="290" y="609.25" />
              <mxPoint x="220" y="511.25" />
            </Array>
          </mxGeometry>
        </mxCell>
        <mxCell id="yU4dRJvC-YZ2i7uGB-qC-33" value="(1,1)" style="text;html=1;align=center;verticalAlign=middle;whiteSpace=wrap;rounded=0;" vertex="1" parent="1">
          <mxGeometry x="230" y="255" width="60" height="30" as="geometry" />
        </mxCell>
        <mxCell id="yU4dRJvC-YZ2i7uGB-qC-34" value="" style="edgeStyle=entityRelationEdgeStyle;fontSize=12;html=1;endArrow=ERmandOne;startArrow=ERmandOne;rounded=0;entryX=1;entryY=0.25;entryDx=0;entryDy=0;" edge="1" parent="1" target="AlXA9y1BA_itxyLEwqiM-69">
          <mxGeometry width="100" height="100" relative="1" as="geometry">
            <mxPoint x="570" y="370" as="sourcePoint" />
            <mxPoint x="540" y="510" as="targetPoint" />
            <Array as="points">
              <mxPoint x="580" y="450" />
            </Array>
          </mxGeometry>
        </mxCell>
        <mxCell id="yU4dRJvC-YZ2i7uGB-qC-35" value="" style="endArrow=none;html=1;rounded=0;" edge="1" parent="1">
          <mxGeometry width="50" height="50" relative="1" as="geometry">
            <mxPoint x="560" y="370" as="sourcePoint" />
            <mxPoint x="570" y="370" as="targetPoint" />
          </mxGeometry>
        </mxCell>
        <mxCell id="yU4dRJvC-YZ2i7uGB-qC-36" value="(1,1)" style="text;html=1;align=center;verticalAlign=middle;whiteSpace=wrap;rounded=0;" vertex="1" parent="1">
          <mxGeometry x="430" y="515" width="60" height="30" as="geometry" />
        </mxCell>
        <mxCell id="yU4dRJvC-YZ2i7uGB-qC-37" value="(1,1)" style="text;html=1;align=center;verticalAlign=middle;whiteSpace=wrap;rounded=0;" vertex="1" parent="1">
          <mxGeometry x="550" y="380" width="60" height="30" as="geometry" />
        </mxCell>
      </root>
    </mxGraphModel>
  </diagram>
</mxfile>
